<svg width="199" height="182" viewBox="0 0 199 182" fill="none" xmlns="http://www.w3.org/2000/svg">
<g id="Group 3">
<path id="Vector 3" d="M43 108C38.8286 95.225 42.4238 80.8122 50.4444 70.5C58.9015 59.6267 69.7003 45.6454 84.5555 42.9444C88.2912 42.2652 90.7428 41 94.7778 41C99.3333 41 103.889 41 108.444 41C114.131 41 118.729 42.5058 124 44.5556C127.282 45.8319 130.524 48.0527 133.444 50C135.644 51.4663 138.455 51.8722 140.444 53.5C147.278 59.0908 154.234 60.4466 156.778 69.6667C158.81 77.0341 157 87.2377 157 95C157 111.434 151.936 125.853 137 134C118.668 143.999 92.5282 142.24 74.4444 132.667C72.464 131.618 69.637 130.581 68.0555 129C66.0447 126.989 62.8433 127.9 60.5555 126.444C57.8575 124.728 52.9842 122.806 51.0555 120.556C49.6558 118.923 48.1597 117.874 48 115C47.6039 107.871 46.3873 102.847 51.2222 97C58.5066 88.191 72.5714 77 85 77C87.9851 77 91.0194 76.8344 94 77C96.7713 77.154 99.0529 79 102 79" stroke="#FEFEDF" stroke-width="81" stroke-linecap="round" stroke-linejoin="round"/>
</g>
</svg>
