<svg width="173" height="160" viewBox="0 0 173 160" fill="none" xmlns="http://www.w3.org/2000/svg">
<g id="Group 1">
<path id="Vector 2" d="M50.1829 51.5C56.1623 45.9477 61.5753 43.9688 69.1829 41H81.4051C84.245 41 87.4287 41.7349 90.1829 42.5C93.7971 43.5039 97.5703 42.4965 101.183 43.5C106.907 45.0901 113.36 45.1441 118.627 47.7778C122.339 49.6336 125.838 53.2138 128.572 56.5556C131.3 59.8901 131.183 68.3462 131.183 72.5556C131.183 78.5626 132.543 86.3868 130.405 92C128.411 97.2341 128.867 100.427 124.683 104.611C119.572 109.722 115.219 113.291 108.961 117C104.365 119.723 94.7742 118 89.5162 118H78.6273C75.0919 118 73.1737 116.436 70.1273 116.056L70.0342 116.044C63.7907 115.264 60.0831 114.8 55.1829 110.444C51.9895 107.606 48.8926 103.343 45.794 99.5556C44.1852 97.5892 44.1814 94.678 42.1829 92.4444C40.3667 90.4145 41.1829 86.614 41.1829 84C41.1829 77.9155 40.2629 71.3956 42.9607 66C45.5225 60.8763 45.5949 55.7603 50.1829 51.5Z" stroke="#FEFEDF" stroke-width="81" stroke-linecap="round" stroke-linejoin="round"/>
</g>
</svg>
