<svg width="187" height="174" viewBox="0 0 187 174" fill="none" xmlns="http://www.w3.org/2000/svg">
<g id="Group 2">
<path id="Vector 1" d="M63.009 121.128C59.7157 117.486 54.91 114.293 54.6632 109.323C54.4819 105.67 52.2931 102.449 51.8298 98.717C51.4823 95.9176 50.0267 93.2665 50.0267 90.4168C50.0267 88.0471 48.1721 87.2263 48.1721 85.0677C48.1721 76.5387 46.4756 67.0346 53.7359 60.5359C57.7021 56.9858 62.1071 53.9086 66.2031 50.5756C70.2459 47.2859 75.5406 48.0856 80.6279 48.0856C104.623 48.0856 120.716 60.8279 136.06 75.6608C139.617 79.0993 137.194 91.4735 137.194 95.7197C137.194 102.179 130.11 109.855 125.036 114.072C114.415 122.9 98.5085 121.044 85.4705 124.263C73.9958 127.097 59.692 121.489 55.0754 112.044C53.7363 109.304 52.3797 108.234 51.8298 105.034C51.3396 102.183 50.954 99.6563 50.954 96.6881C50.954 90.6974 49.7579 83.6685 51.8813 77.9664" stroke="#FEFEDF" stroke-width="96" stroke-linecap="round" stroke-linejoin="round"/>
</g>
</svg>
