<svg width="109" height="82" viewBox="0 0 109 82" fill="none" xmlns="http://www.w3.org/2000/svg">
<g id="VA">
<rect id="Rectangle 2" y="-36.075" width="109" height="109" fill="#9E7FE7"/>
<path id="VA_2" d="M5.3956 -12.0559C5.26843 -12.5646 5.20485 -12.9143 5.20485 -13.105C5.20485 -13.8044 5.42739 -14.3449 5.87247 -14.7264C6.38114 -15.1715 7.01697 -15.394 7.77997 -15.394L29.144 43.8339L49.8404 -13.3911C50.2854 -14.7264 51.112 -15.394 52.3201 -15.394C52.9559 -15.394 53.5282 -15.2668 54.0369 -15.0125L29.907 51.75H28.381L5.3956 -12.0559ZM53.8729 52.3223C53.3007 52.3223 52.7284 52.1315 52.1562 51.75L74.5693 -12.2466C75.0144 -13.4547 75.4913 -14.3131 75.9999 -14.8218C76.5086 -15.3304 77.1444 -15.5848 77.9074 -15.5848C78.4161 -15.5848 78.893 -15.4894 79.3381 -15.2986L101.751 48.7934C101.942 49.3656 102.037 49.8743 102.037 50.3194C102.037 51.6546 101.147 52.3223 99.3668 52.3223L91.5461 30.0999H63.4104L56.5434 49.5564C55.9076 51.4003 55.0174 52.3223 53.8729 52.3223ZM90.4969 27.0479L77.4306 -10.1484L64.4596 27.0479H90.4969Z" fill="#FBF8FF"/>
</g>
</svg>
